<svg xmlns="http://www.w3.org/2000/svg" width="1126.182" height="694.222" data-name="Layer 1"><path fill="#f2f2f2" d="M161.182 173.908h140v2h-140z"/><path fill="#f2f2f2" d="M199.182 155.908h2v18.5h-2zm61 0h2v18.5h-2zm-147-82h140v2h-140z"/><path fill="#f2f2f2" d="M213.182 75.408h2v18.5h-2zm-61 0h2v18.5h-2zm183 138.5h140v2h-140z"/><path fill="#f2f2f2" d="M373.182 195.908h2v18.5h-2zm61 0h2v18.5h-2zm-147-82h140v2h-140z"/><path fill="#f2f2f2" d="M387.182 115.408h2v18.5h-2zm-61 0h2v18.5h-2zm-46 438.5h140v2h-140z"/><path fill="#f2f2f2" d="M318.182 535.908h2v18.5h-2zm61 0h2v18.5h-2zm-147-82h140v2h-140z"/><path fill="#f2f2f2" d="M332.182 455.408h2v18.5h-2zm-61 0h2v18.5h-2zm-55-117.5h140v2h-140z"/><path fill="#f2f2f2" d="M254.182 319.908h2v18.5h-2zm61 0h2v18.5h-2zm-147-82h140v2h-140z"/><path fill="#f2f2f2" d="M268.182 239.408h2v18.5h-2zm-61 0h2v18.5h-2zm-92 250.5h140v2h-140z"/><path fill="#f2f2f2" d="M153.182 471.908h2v18.5h-2zm61 0h2v18.5h-2zm-147-82h140v2h-140z"/><path fill="#f2f2f2" d="M167.182 391.408h2v18.5h-2zm-61 0h2v18.5h-2zm706-217.5h140v2h-140z"/><path fill="#f2f2f2" d="M850.182 155.908h2v18.5h-2zm61 0h2v18.5h-2zm-147-82h140v2h-140z"/><path fill="#f2f2f2" d="M864.182 75.408h2v18.5h-2zm-61 0h2v18.5h-2zm183 138.5h140v2h-140z"/><path fill="#f2f2f2" d="M1024.182 195.908h2v18.5h-2zm61 0h2v18.5h-2zm-147-82h140v2h-140z"/><path fill="#f2f2f2" d="M1038.182 115.408h2v18.5h-2zm-61 0h2v18.5h-2zm-46 438.5h140v2h-140z"/><path fill="#f2f2f2" d="M969.182 535.908h2v18.5h-2zm61 0h2v18.5h-2zm-147-82h140v2h-140z"/><path fill="#f2f2f2" d="M983.182 455.408h2v18.5h-2zm-61 0h2v18.5h-2zm-55-117.5h140v2h-140z"/><path fill="#f2f2f2" d="M905.182 319.908h2v18.5h-2zm61 0h2v18.5h-2zm-147-82h140v2h-140z"/><path fill="#f2f2f2" d="M919.182 239.408h2v18.5h-2zm-61 0h2v18.5h-2zm-92 250.5h140v2h-140z"/><path fill="#f2f2f2" d="M804.182 471.908h2v18.5h-2zm61 0h2v18.5h-2zm-147-82h140v2h-140z"/><path fill="#f2f2f2" d="M818.182 391.408h2v18.5h-2zm-61 0h2v18.5h-2z"/><path fill="#3f3d56" d="M362.934 0h194.5v276h-194.5zm249.5 331h194.5v276h-194.5zm0-331h194.5v276h-194.5zm-249.5 331h194.5v276h-194.5z"/><path fill="#2f2e41" d="M95.424 606.131h963.51v2.241H95.424z"/><path fill="#3f3d56" d="M113.934 591h-11v93s71 23 140 0v-93Z"/><ellipse cx="171.934" cy="591.5" fill="#3f3d56" rx="69" ry="10.5"/><ellipse cx="171.934" cy="591.5" opacity=".1" rx="69" ry="10.5"/><path fill="#3f3d56" d="M252.142 479.886c-17.406 64.345-77.027 104.195-77.027 104.195s-31.4-64.473-13.994-128.818 77.028-104.195 77.028-104.195 31.4 64.473 13.993 128.818Z"/><path fill="#37718e" d="M93.792 479.886c17.406 64.345 77.027 104.195 77.027 104.195s31.4-64.473 13.993-128.818-77.027-104.195-77.027-104.195-31.4 64.473-13.993 128.818Z"/><path fill="#3f3d56" d="M119.37 466.058c47.763 46.496 53.597 117.97 53.597 117.97s-71.606-3.91-119.37-50.405S0 415.653 0 415.653s71.606 3.909 119.37 50.405Z"/><path fill="#3f3d56" d="M226.564 466.058c-47.763 46.496-53.597 117.97-53.597 117.97s71.606-3.91 119.37-50.405 53.597-117.97 53.597-117.97-71.606 3.909-119.37 50.405Z"/><circle cx="172.934" cy="351" r="22" fill="#37718e"/><circle cx="439.934" cy="148" r="3" fill="#fff"/><circle cx="425.934" cy="77" r="35" fill="#fff"/><circle cx="481.934" cy="125" r="1" fill="#fff"/><circle cx="657.934" cy="175" r="1" fill="#fff"/><circle cx="646.934" cy="474" r="1" fill="#fff"/><circle cx="435.934" cy="543" r="1" fill="#fff"/><circle cx="730.934" cy="210" r="1" fill="#fff"/><circle cx="720.934" cy="126" r="1" fill="#fff"/><circle cx="686.934" cy="396" r="1" fill="#fff"/><circle cx="632.934" cy="246" r="1" fill="#fff"/><circle cx="640.934" cy="105" r="1" fill="#fff"/><circle cx="731.934" cy="48" r="1" fill="#fff"/><circle cx="437.934" cy="453" r="1" fill="#fff"/><circle cx="523.934" cy="529" r="1" fill="#fff"/><circle cx="413.934" cy="378" r="1" fill="#fff"/><circle cx="438.934" cy="246" r="1" fill="#fff"/><path fill="#fff" d="m438.934 247 118.5-51.07v13.52L438.934 247zm368-158.59v41.97l-194.5 61.64v-19.79l194.5-83.82zm-309.96 306.57 60.46-33.31v4.63c-33.81 16.37-59.28 28.14-60.46 28.68ZM613.114 331h15.25q-7.935 4.095-15.93 8.13v-7.75Zm119.82-66c-.46 2.65-3.95 6.41-9.76 11h-10.21Zm74 179.36v7.06c-51.92 25.91-99.35 47.82-100.96 48.56Z" opacity=".1"/><path fill="#37718e" d="M689.934 454.187a10.385 10.385 0 0 0-6.036-9.426l.32-4.084h-22.344l2.598 26.501h17.667l.236-2.999a10.39 10.39 0 0 0 7.559-9.992Zm-7.435 8.41 1.237-15.778a10.352 10.352 0 0 1-1.237 15.779Z"/><path fill="#ffb9b9" d="M665.844 432.617s26.42 18.872 17.613 26.42-26.42-22.645-26.42-22.645Z" data-name="right hand"/><path fill="#ffb9b9" d="M543.808 461.554s5.033 62.905 6.29 71.711 2.517 88.067 5.033 96.874 5.033 30.194 5.033 30.194h15.097s-1.258-39 2.516-54.098 2.516-56.615 2.516-56.615 7.549-74.227 3.774-84.292-40.259-3.774-40.259-3.774Z" data-name="left leg"/><path fill="#2f2e41" d="M563.938 656.559s-6.29 3.774-6.29 6.29 1.257 8.807 0 11.323-10.065 12.581-5.033 15.097 27.678 0 27.678 0-1.258-17.613-2.516-18.871 1.258-13.84 1.258-13.84Z" data-name="left shoe"/><path fill="#ffb9b9" d="M639.983 460.012s1.598 63.086 1.271 71.976 6.742 87.844 5.164 96.866-1.835 30.556-1.835 30.556l-15.014 1.585s-2.843-38.918-8.18-53.535-8.446-56.038-8.446-56.038-15.298-73.025-12.6-83.43 39.64-7.98 39.64-7.98Z" data-name="right leg"/><path fill="#2f2e41" d="M640.433 656.053s6.652 3.093 6.916 5.595-.327 8.89 1.189 11.26 11.33 11.456 6.589 14.486-27.525 2.905-27.525 2.905-.598-17.648.521-19.03-2.704-13.631-2.704-13.631Z" data-name="right shoe"/><path fill="#2f2e41" d="M561.422 367.196s-10.065 1.258-13.84 22.646-17.613 75.486-6.29 79.26 45.292 11.323 46.55 8.807 3.774-8.807 3.774-8.807-3.774 11.323 1.258 11.323 54.098-7.548 52.84-11.323-3.774-31.452-3.774-31.452-7.549-46.55-15.097-54.098a20.632 20.632 0 0 1-6.29-16.356Z" data-name="pants"/><path fill="#ffb9b9" d="M542.55 357.131s16.355-3.774 18.872 1.259-6.29 12.58-10.065 12.58-10.065-3.774-10.065-3.774Z" data-name="left hand"/><circle cx="600.453" cy="225.897" r="22.646" fill="#ffb9b9" data-name="head"/><path fill="#ffb9b9" d="M586.771 241.413s-2.704 20.103-5.22 20.103 18.872 11.323 18.872 11.323l16.355-2.516 5.032-7.549s-7.804-12.122-7.804-22.187-27.235.826-27.235.826Z" data-name="neck"/><path fill="#ff6584" d="M591.616 261.516S587.842 259 586.584 259h-10.065c-1.258 0-17.614 3.774-17.614 3.774l-10.064 56.615s17.613 28.936 5.032 51.582c0 0 3.774-2.517 21.388-1.259s49.066 5.033 50.324 5.033 1.258-10.065 0-12.581 1.258-1.258 1.258-7.549 3.774-17.613 3.774-17.613l17.613-64.163s-22.645-12.581-26.42-11.323-15.097 5.032-17.613 3.774-12.581-3.774-12.581-3.774Z" data-name="upper body"/><path fill="#ff6584" d="m562.68 264.032-3.775-1.258s-7.548-1.258-16.355 6.29-41.517 30.195-41.517 30.195-12.581 10.065-8.807 21.388 10.065 39 28.937 37.743c0 0 11.322 15.097 17.613 12.58s11.323-12.58 7.549-13.838-13.84-13.84-13.84-13.84l12.581-23.903h3.775l13.839-7.549Z" data-name="left arm"/><path fill="#ff6584" d="m638.166 271.58 10.064 1.259s8.807 3.774 7.55 20.13 7.548 90.583 3.773 99.39c0 0 12.581 42.775 10.065 44.033s-17.613 8.806-16.355 3.774-13.84-40.26-13.84-40.26-17.613-18.87-10.064-45.29v-21.388Z" data-name="right arm"/><path fill="#2f2e41" d="M659.168 246.23c-2.807-3.969-6.26-7.438-9.222-11.292-6.829-8.888-9.191-20.73-18.356-27.546-9.068-6.745-23.458-13.382-34.806-12.85-14.956.7-26.82 12.302-37.129 23.159l-23.636 24.89c-5.7 6.001-11.61 12.373-13.664 20.391-1.974 7.706-.047 15.985 3.567 23.071a56.152 56.152 0 0 0 15.444 18.435c7.911-10.894 18.996-25.937 18.996-25.937l2.58 37.417c13.404 4.443 27.803 5.316 41.928 4.334l4.184-15.341 4.392 14.491c16.88-2.237 33.838-8.066 44.288-21.238 11.553-14.564 12.166-36.805 1.434-51.983Z"/><path fill="#2f2e41" d="M564.905 242.452c-2.334-11.722.188-23.867 8.03-33.168 14.487-17.182 41.607-18.148 60.575-2.155a47.753 47.753 0 0 1 15.55 24.326 47.495 47.495 0 0 0-16.144-26.901c-18.968-15.992-46.089-15.027-60.576 2.156-8.417 9.984-10.706 23.245-7.435 35.742Zm-44.566 55.295c-2.335-11.722.188-23.867 8.03-33.167 14.486-17.183 41.607-18.148 60.575-2.156a47.753 47.753 0 0 1 15.549 24.326 47.495 47.495 0 0 0-16.143-26.901c-18.968-15.992-46.089-15.027-60.576 2.156-8.418 9.984-10.706 23.245-7.435 35.742Zm101.072-61.581c11.895-1.17 23.733 2.534 32.218 11.251 15.675 16.107 13.97 43.19-3.81 60.495a47.753 47.753 0 0 1-25.737 13.082 47.494 47.494 0 0 0 28.358-13.42c17.78-17.304 19.485-44.389 3.81-60.495-9.108-9.358-22.08-12.94-34.839-10.913Z"/><path fill="#fff" d="M677.671 396.405a5.867 5.867 0 0 0-6.191 2.433 7.996 7.996 0 0 0-1 2.466 13.52 13.52 0 0 0 4.298 13.228 25.952 25.952 0 0 1 2.75 2.333 7.817 7.817 0 0 1 1.514 7.038 11.853 11.853 0 0 1-4.127 6.103 3.37 3.37 0 0 0-1.014 1.086c-.677 1.447 1.068 2.825 1.512 4.36" opacity=".1"/></svg>